<?xml version="1.0" encoding="UTF-8" standalone="no"?>
<!DOCTYPE svg PUBLIC "-//W3C//DTD SVG 1.1//EN"
 "http://www.w3.org/Graphics/SVG/1.1/DTD/svg11.dtd">
<!-- Generated by graphviz version 2.38.0 (20140413.2041)
 -->
<!-- Title: movie&#45;review data flow Pages: 1 -->
<svg width="957pt" height="1670pt"
 viewBox="0.00 0.00 956.50 1670.48" xmlns="http://www.w3.org/2000/svg" xmlns:xlink="http://www.w3.org/1999/xlink">
<g id="graph0" class="graph" transform="scale(1 1) rotate(0) translate(4 1666.48)">
<title>movie&#45;review data flow</title>
<polygon fill="white" stroke="none" points="-4,4 -4,-1666.48 952.503,-1666.48 952.503,4 -4,4"/>
<!-- process/
init/app -->
<g id="node1" class="node"><title>process/
init/app</title>
<ellipse fill="none" stroke="#cc2222" cx="530.081" cy="-22.6274" rx="34.4627" ry="22.7556"/>
<text text-anchor="middle" x="530.081" y="-25.6274" font-family="Ubuntu Mono,Envy Code R,Oxygen Mono,Consolas,Menlo,Monaco,Andale Mono" font-size="10.00">process/</text>
<text text-anchor="middle" x="530.081" y="-13.6274" font-family="Ubuntu Mono,Envy Code R,Oxygen Mono,Consolas,Menlo,Monaco,Andale Mono" font-size="10.00">init/app</text>
</g>
<!-- process/
init/relation/reviews -->
<g id="node2" class="node"><title>process/
init/relation/reviews</title>
<ellipse fill="none" stroke="#cc2222" cx="449.081" cy="-103.882" rx="68.0191" ry="22.7556"/>
<text text-anchor="middle" x="449.081" y="-106.882" font-family="Ubuntu Mono,Envy Code R,Oxygen Mono,Consolas,Menlo,Monaco,Andale Mono" font-size="10.00">process/</text>
<text text-anchor="middle" x="449.081" y="-94.8823" font-family="Ubuntu Mono,Envy Code R,Oxygen Mono,Consolas,Menlo,Monaco,Andale Mono" font-size="10.00">init/relation/reviews</text>
</g>
<!-- process/
init/app&#45;&gt;process/
init/relation/reviews -->
<g id="edge1" class="edge"><title>process/
init/app&#45;&gt;process/
init/relation/reviews</title>
<path fill="none" stroke="#999999" d="M511.294,-42.0093C501.346,-51.7436 488.915,-63.9063 477.786,-74.7953"/>
<polygon fill="#999999" stroke="#999999" points="475.036,-72.5895 470.336,-82.0849 479.932,-77.5929 475.036,-72.5895"/>
</g>
<!-- process/
init/relation/sentiments -->
<g id="node3" class="node"><title>process/
init/relation/sentiments</title>
<ellipse fill="none" stroke="#cc2222" cx="612.081" cy="-103.882" rx="76.5335" ry="22.7556"/>
<text text-anchor="middle" x="612.081" y="-106.882" font-family="Ubuntu Mono,Envy Code R,Oxygen Mono,Consolas,Menlo,Monaco,Andale Mono" font-size="10.00">process/</text>
<text text-anchor="middle" x="612.081" y="-94.8823" font-family="Ubuntu Mono,Envy Code R,Oxygen Mono,Consolas,Menlo,Monaco,Andale Mono" font-size="10.00">init/relation/sentiments</text>
</g>
<!-- process/
init/app&#45;&gt;process/
init/relation/sentiments -->
<g id="edge2" class="edge"><title>process/
init/app&#45;&gt;process/
init/relation/sentiments</title>
<path fill="none" stroke="#999999" d="M549.1,-42.0093C559.268,-51.8372 571.997,-64.1404 583.346,-75.109"/>
<polygon fill="#999999" stroke="#999999" points="580.94,-77.6518 590.563,-82.0849 585.805,-72.6185 580.94,-77.6518"/>
</g>
<!-- data/
reviews -->
<g id="node5" class="node"><title>data/
reviews</title>
<polygon fill="none" stroke="#2222cc" points="476.081,-198.51 426.081,-198.51 422.081,-194.51 422.081,-162.51 472.081,-162.51 476.081,-166.51 476.081,-198.51"/>
<polyline fill="none" stroke="#2222cc" points="472.081,-194.51 422.081,-194.51 "/>
<polyline fill="none" stroke="#2222cc" points="472.081,-194.51 472.081,-162.51 "/>
<polyline fill="none" stroke="#2222cc" points="472.081,-194.51 476.081,-198.51 "/>
<text text-anchor="middle" x="449.081" y="-183.51" font-family="Ubuntu Mono,Envy Code R,Oxygen Mono,Consolas,Menlo,Monaco,Andale Mono" font-size="10.00">data/</text>
<text text-anchor="middle" x="449.081" y="-171.51" font-family="Ubuntu Mono,Envy Code R,Oxygen Mono,Consolas,Menlo,Monaco,Andale Mono" font-size="10.00">reviews</text>
</g>
<!-- process/
init/relation/reviews&#45;&gt;data/
reviews -->
<g id="edge32" class="edge"><title>process/
init/relation/reviews&#45;&gt;data/
reviews</title>
<path fill="none" stroke="#999999" d="M449.081,-126.869C449.081,-134.85 449.081,-143.963 449.081,-152.339"/>
<polygon fill="#999999" stroke="#999999" points="445.581,-152.412 449.081,-162.412 452.581,-152.412 445.581,-152.412"/>
</g>
<!-- data/
sentiments -->
<g id="node7" class="node"><title>data/
sentiments</title>
<polygon fill="none" stroke="#2222cc" points="641.354,-198.51 586.809,-198.51 582.809,-194.51 582.809,-162.51 637.354,-162.51 641.354,-166.51 641.354,-198.51"/>
<polyline fill="none" stroke="#2222cc" points="637.354,-194.51 582.809,-194.51 "/>
<polyline fill="none" stroke="#2222cc" points="637.354,-194.51 637.354,-162.51 "/>
<polyline fill="none" stroke="#2222cc" points="637.354,-194.51 641.354,-198.51 "/>
<text text-anchor="middle" x="612.081" y="-183.51" font-family="Ubuntu Mono,Envy Code R,Oxygen Mono,Consolas,Menlo,Monaco,Andale Mono" font-size="10.00">data/</text>
<text text-anchor="middle" x="612.081" y="-171.51" font-family="Ubuntu Mono,Envy Code R,Oxygen Mono,Consolas,Menlo,Monaco,Andale Mono" font-size="10.00">sentiments</text>
</g>
<!-- process/
init/relation/sentiments&#45;&gt;data/
sentiments -->
<g id="edge33" class="edge"><title>process/
init/relation/sentiments&#45;&gt;data/
sentiments</title>
<path fill="none" stroke="#999999" d="M612.081,-126.869C612.081,-134.85 612.081,-143.963 612.081,-152.339"/>
<polygon fill="#999999" stroke="#999999" points="608.581,-152.412 612.081,-162.412 615.581,-152.412 608.581,-152.412"/>
</g>
<!-- process/
ext_review_feature_by_extract_features -->
<g id="node4" class="node"><title>process/
ext_review_feature_by_extract_features</title>
<ellipse fill="none" stroke="#cc2222" cx="296.081" cy="-257.137" rx="125.35" ry="22.7556"/>
<text text-anchor="middle" x="296.081" y="-260.137" font-family="Ubuntu Mono,Envy Code R,Oxygen Mono,Consolas,Menlo,Monaco,Andale Mono" font-size="10.00">process/</text>
<text text-anchor="middle" x="296.081" y="-248.137" font-family="Ubuntu Mono,Envy Code R,Oxygen Mono,Consolas,Menlo,Monaco,Andale Mono" font-size="10.00">ext_review_feature_by_extract_features</text>
</g>
<!-- data/
review_feature -->
<g id="node14" class="node"><title>data/
review_feature</title>
<polygon fill="none" stroke="#2222cc" points="399.04,-428.392 327.122,-428.392 323.122,-424.392 323.122,-392.392 395.04,-392.392 399.04,-396.392 399.04,-428.392"/>
<polyline fill="none" stroke="#2222cc" points="395.04,-424.392 323.122,-424.392 "/>
<polyline fill="none" stroke="#2222cc" points="395.04,-424.392 395.04,-392.392 "/>
<polyline fill="none" stroke="#2222cc" points="395.04,-424.392 399.04,-428.392 "/>
<text text-anchor="middle" x="361.081" y="-413.392" font-family="Ubuntu Mono,Envy Code R,Oxygen Mono,Consolas,Menlo,Monaco,Andale Mono" font-size="10.00">data/</text>
<text text-anchor="middle" x="361.081" y="-401.392" font-family="Ubuntu Mono,Envy Code R,Oxygen Mono,Consolas,Menlo,Monaco,Andale Mono" font-size="10.00">review_feature</text>
</g>
<!-- process/
ext_review_feature_by_extract_features&#45;&gt;data/
review_feature -->
<g id="edge30" class="edge"><title>process/
ext_review_feature_by_extract_features&#45;&gt;data/
review_feature</title>
<path fill="none" stroke="#999999" d="M305.394,-279.808C317.063,-306.962 337.054,-353.481 349.642,-382.772"/>
<polygon fill="#999999" stroke="#999999" points="346.44,-384.187 353.604,-391.993 352.871,-381.423 346.44,-384.187"/>
</g>
<!-- data/
reviews&#45;&gt;process/
ext_review_feature_by_extract_features -->
<g id="edge3" class="edge"><title>data/
reviews&#45;&gt;process/
ext_review_feature_by_extract_features</title>
<path fill="none" stroke="#999999" d="M422.08,-194.68C401.298,-204.816 371.975,-219.119 346.845,-231.376"/>
<polygon fill="#999999" stroke="#999999" points="345.254,-228.258 337.801,-235.788 348.323,-234.55 345.254,-228.258"/>
</g>
<!-- process/
ext_review_sentiment -->
<g id="node6" class="node"><title>process/
ext_review_sentiment</title>
<ellipse fill="none" stroke="#cc2222" cx="612.081" cy="-257.137" rx="73.5118" ry="22.7556"/>
<text text-anchor="middle" x="612.081" y="-260.137" font-family="Ubuntu Mono,Envy Code R,Oxygen Mono,Consolas,Menlo,Monaco,Andale Mono" font-size="10.00">process/</text>
<text text-anchor="middle" x="612.081" y="-248.137" font-family="Ubuntu Mono,Envy Code R,Oxygen Mono,Consolas,Menlo,Monaco,Andale Mono" font-size="10.00">ext_review_sentiment</text>
</g>
<!-- data/
reviews&#45;&gt;process/
ext_review_sentiment -->
<g id="edge4" class="edge"><title>data/
reviews&#45;&gt;process/
ext_review_sentiment</title>
<path fill="none" stroke="#999999" d="M476.364,-194.001C499.977,-204.812 534.703,-220.71 563.116,-233.719"/>
<polygon fill="#999999" stroke="#999999" points="561.936,-237.028 572.485,-238.009 564.85,-230.663 561.936,-237.028"/>
</g>
<!-- process/
grounding/factor/inf_istrue_review_sentiment/materialize -->
<g id="node13" class="node"><title>process/
grounding/factor/inf_istrue_review_sentiment/materialize</title>
<ellipse fill="none" stroke="#cc2222" cx="417.081" cy="-572.902" rx="175.145" ry="22.7556"/>
<text text-anchor="middle" x="417.081" y="-575.902" font-family="Ubuntu Mono,Envy Code R,Oxygen Mono,Consolas,Menlo,Monaco,Andale Mono" font-size="10.00">process/</text>
<text text-anchor="middle" x="417.081" y="-563.902" font-family="Ubuntu Mono,Envy Code R,Oxygen Mono,Consolas,Menlo,Monaco,Andale Mono" font-size="10.00">grounding/factor/inf_istrue_review_sentiment/materialize</text>
</g>
<!-- data/
reviews&#45;&gt;process/
grounding/factor/inf_istrue_review_sentiment/materialize -->
<g id="edge11" class="edge"><title>data/
reviews&#45;&gt;process/
grounding/factor/inf_istrue_review_sentiment/materialize</title>
<path fill="none" stroke="#999999" d="M449.081,-198.749C449.081,-226.828 449.081,-284.184 449.081,-332.765 449.081,-332.765 449.081,-332.765 449.081,-411.392 449.081,-456.903 436.555,-508.295 427.177,-540.395"/>
<polygon fill="#999999" stroke="#999999" points="423.784,-539.523 424.262,-550.107 430.489,-541.535 423.784,-539.523"/>
</g>
<!-- data/
review_sentiment -->
<g id="node9" class="node"><title>data/
review_sentiment</title>
<polygon fill="none" stroke="#2222cc" points="660.669,-351.765 577.493,-351.765 573.493,-347.765 573.493,-315.765 656.669,-315.765 660.669,-319.765 660.669,-351.765"/>
<polyline fill="none" stroke="#2222cc" points="656.669,-347.765 573.493,-347.765 "/>
<polyline fill="none" stroke="#2222cc" points="656.669,-347.765 656.669,-315.765 "/>
<polyline fill="none" stroke="#2222cc" points="656.669,-347.765 660.669,-351.765 "/>
<text text-anchor="middle" x="617.081" y="-336.765" font-family="Ubuntu Mono,Envy Code R,Oxygen Mono,Consolas,Menlo,Monaco,Andale Mono" font-size="10.00">data/</text>
<text text-anchor="middle" x="617.081" y="-324.765" font-family="Ubuntu Mono,Envy Code R,Oxygen Mono,Consolas,Menlo,Monaco,Andale Mono" font-size="10.00">review_sentiment</text>
</g>
<!-- process/
ext_review_sentiment&#45;&gt;data/
review_sentiment -->
<g id="edge31" class="edge"><title>process/
ext_review_sentiment&#45;&gt;data/
review_sentiment</title>
<path fill="none" stroke="#999999" d="M613.554,-280.124C614.089,-288.105 614.699,-297.218 615.261,-305.593"/>
<polygon fill="#999999" stroke="#999999" points="611.775,-305.923 615.936,-315.667 618.759,-305.455 611.775,-305.923"/>
</g>
<!-- data/
sentiments&#45;&gt;process/
ext_review_sentiment -->
<g id="edge5" class="edge"><title>data/
sentiments&#45;&gt;process/
ext_review_sentiment</title>
<path fill="none" stroke="#999999" d="M612.081,-198.818C612.081,-206.349 612.081,-215.423 612.081,-224.107"/>
<polygon fill="#999999" stroke="#999999" points="608.581,-224.376 612.081,-234.376 615.581,-224.376 608.581,-224.376"/>
</g>
<!-- process/
grounding/variable_id_partition -->
<g id="node8" class="node"><title>process/
grounding/variable_id_partition</title>
<ellipse fill="none" stroke="#cc2222" cx="620.081" cy="-410.392" rx="101.799" ry="22.7556"/>
<text text-anchor="middle" x="620.081" y="-413.392" font-family="Ubuntu Mono,Envy Code R,Oxygen Mono,Consolas,Menlo,Monaco,Andale Mono" font-size="10.00">process/</text>
<text text-anchor="middle" x="620.081" y="-401.392" font-family="Ubuntu Mono,Envy Code R,Oxygen Mono,Consolas,Menlo,Monaco,Andale Mono" font-size="10.00">grounding/variable_id_partition</text>
</g>
<!-- process/
grounding/variable/review_sentiment/assign_id -->
<g id="node10" class="node"><title>process/
grounding/variable/review_sentiment/assign_id</title>
<ellipse fill="none" stroke="#cc2222" cx="623.081" cy="-491.647" rx="146.052" ry="22.7556"/>
<text text-anchor="middle" x="623.081" y="-494.647" font-family="Ubuntu Mono,Envy Code R,Oxygen Mono,Consolas,Menlo,Monaco,Andale Mono" font-size="10.00">process/</text>
<text text-anchor="middle" x="623.081" y="-482.647" font-family="Ubuntu Mono,Envy Code R,Oxygen Mono,Consolas,Menlo,Monaco,Andale Mono" font-size="10.00">grounding/variable/review_sentiment/assign_id</text>
</g>
<!-- process/
grounding/variable_id_partition&#45;&gt;process/
grounding/variable/review_sentiment/assign_id -->
<g id="edge7" class="edge"><title>process/
grounding/variable_id_partition&#45;&gt;process/
grounding/variable/review_sentiment/assign_id</title>
<path fill="none" stroke="#999999" d="M620.901,-433.049C621.202,-440.999 621.549,-450.174 621.877,-458.831"/>
<polygon fill="#999999" stroke="#999999" points="618.386,-459.156 622.262,-469.016 625.381,-458.891 618.386,-459.156"/>
</g>
<!-- data/
review_sentiment&#45;&gt;process/
grounding/variable_id_partition -->
<g id="edge6" class="edge"><title>data/
review_sentiment&#45;&gt;process/
grounding/variable_id_partition</title>
<path fill="none" stroke="#999999" d="M617.777,-352.073C618.08,-359.604 618.444,-368.677 618.793,-377.362"/>
<polygon fill="#999999" stroke="#999999" points="615.307,-377.78 619.206,-387.631 622.302,-377.499 615.307,-377.78"/>
</g>
<!-- process/
grounding/variable_holdout -->
<g id="node11" class="node"><title>process/
grounding/variable_holdout</title>
<ellipse fill="none" stroke="#cc2222" cx="732.081" cy="-572.902" rx="90.0236" ry="22.7556"/>
<text text-anchor="middle" x="732.081" y="-575.902" font-family="Ubuntu Mono,Envy Code R,Oxygen Mono,Consolas,Menlo,Monaco,Andale Mono" font-size="10.00">process/</text>
<text text-anchor="middle" x="732.081" y="-563.902" font-family="Ubuntu Mono,Envy Code R,Oxygen Mono,Consolas,Menlo,Monaco,Andale Mono" font-size="10.00">grounding/variable_holdout</text>
</g>
<!-- process/
grounding/variable/review_sentiment/assign_id&#45;&gt;process/
grounding/variable_holdout -->
<g id="edge8" class="edge"><title>process/
grounding/variable/review_sentiment/assign_id&#45;&gt;process/
grounding/variable_holdout</title>
<path fill="none" stroke="#999999" d="M652.291,-513.886C665.451,-523.454 681.139,-534.861 695.108,-545.018"/>
<polygon fill="#999999" stroke="#999999" points="693.399,-548.103 703.545,-551.153 697.515,-542.441 693.399,-548.103"/>
</g>
<!-- process/
grounding/variable/review_sentiment/assign_id&#45;&gt;process/
grounding/factor/inf_istrue_review_sentiment/materialize -->
<g id="edge12" class="edge"><title>process/
grounding/variable/review_sentiment/assign_id&#45;&gt;process/
grounding/factor/inf_istrue_review_sentiment/materialize</title>
<path fill="none" stroke="#999999" d="M570.566,-512.851C543.041,-523.441 509.127,-536.488 480.185,-547.624"/>
<polygon fill="#999999" stroke="#999999" points="478.652,-544.463 470.576,-551.32 481.166,-550.996 478.652,-544.463"/>
</g>
<!-- process/
grounding/variable/review_sentiment/dump -->
<g id="node12" class="node"><title>process/
grounding/variable/review_sentiment/dump</title>
<ellipse fill="none" stroke="#cc2222" cx="813.081" cy="-735.411" rx="135.345" ry="22.7556"/>
<text text-anchor="middle" x="813.081" y="-738.411" font-family="Ubuntu Mono,Envy Code R,Oxygen Mono,Consolas,Menlo,Monaco,Andale Mono" font-size="10.00">process/</text>
<text text-anchor="middle" x="813.081" y="-726.411" font-family="Ubuntu Mono,Envy Code R,Oxygen Mono,Consolas,Menlo,Monaco,Andale Mono" font-size="10.00">grounding/variable/review_sentiment/dump</text>
</g>
<!-- process/
grounding/variable_holdout&#45;&gt;process/
grounding/variable/review_sentiment/dump -->
<g id="edge9" class="edge"><title>process/
grounding/variable_holdout&#45;&gt;process/
grounding/variable/review_sentiment/dump</title>
<path fill="none" stroke="#999999" d="M743.005,-595.549C757.054,-623.389 781.544,-671.917 797.533,-703.601"/>
<polygon fill="#999999" stroke="#999999" points="794.571,-705.501 802.201,-712.851 800.82,-702.347 794.571,-705.501"/>
</g>
<!-- process/
grounding/combine_factorgraph -->
<g id="node20" class="node"><title>process/
grounding/combine_factorgraph</title>
<ellipse fill="none" stroke="#cc2222" cx="467.081" cy="-897.921" rx="102.635" ry="22.7556"/>
<text text-anchor="middle" x="467.081" y="-900.921" font-family="Ubuntu Mono,Envy Code R,Oxygen Mono,Consolas,Menlo,Monaco,Andale Mono" font-size="10.00">process/</text>
<text text-anchor="middle" x="467.081" y="-888.921" font-family="Ubuntu Mono,Envy Code R,Oxygen Mono,Consolas,Menlo,Monaco,Andale Mono" font-size="10.00">grounding/combine_factorgraph</text>
</g>
<!-- process/
grounding/variable/review_sentiment/dump&#45;&gt;process/
grounding/combine_factorgraph -->
<g id="edge21" class="edge"><title>process/
grounding/variable/review_sentiment/dump&#45;&gt;process/
grounding/combine_factorgraph</title>
<path fill="none" stroke="#999999" d="M829.903,-758.169C845.271,-780.865 862.834,-816.282 843.081,-839.294 809.638,-878.253 678.098,-891.145 579.97,-895.263"/>
<polygon fill="#999999" stroke="#999999" points="579.538,-891.777 569.683,-895.668 579.813,-898.772 579.538,-891.777"/>
</g>
<!-- process/
grounding/weight_id_partition -->
<g id="node15" class="node"><title>process/
grounding/weight_id_partition</title>
<ellipse fill="none" stroke="#cc2222" cx="417.081" cy="-654.156" rx="98.2449" ry="22.7556"/>
<text text-anchor="middle" x="417.081" y="-657.156" font-family="Ubuntu Mono,Envy Code R,Oxygen Mono,Consolas,Menlo,Monaco,Andale Mono" font-size="10.00">process/</text>
<text text-anchor="middle" x="417.081" y="-645.156" font-family="Ubuntu Mono,Envy Code R,Oxygen Mono,Consolas,Menlo,Monaco,Andale Mono" font-size="10.00">grounding/weight_id_partition</text>
</g>
<!-- process/
grounding/factor/inf_istrue_review_sentiment/materialize&#45;&gt;process/
grounding/weight_id_partition -->
<g id="edge13" class="edge"><title>process/
grounding/factor/inf_istrue_review_sentiment/materialize&#45;&gt;process/
grounding/weight_id_partition</title>
<path fill="none" stroke="#999999" d="M417.081,-595.558C417.081,-603.509 417.081,-612.683 417.081,-621.34"/>
<polygon fill="#999999" stroke="#999999" points="413.581,-621.526 417.081,-631.526 420.581,-621.526 413.581,-621.526"/>
</g>
<!-- process/
grounding/global_weight_table -->
<g id="node16" class="node"><title>process/
grounding/global_weight_table</title>
<ellipse fill="none" stroke="#cc2222" cx="100.081" cy="-654.156" rx="100.162" ry="22.7556"/>
<text text-anchor="middle" x="100.081" y="-657.156" font-family="Ubuntu Mono,Envy Code R,Oxygen Mono,Consolas,Menlo,Monaco,Andale Mono" font-size="10.00">process/</text>
<text text-anchor="middle" x="100.081" y="-645.156" font-family="Ubuntu Mono,Envy Code R,Oxygen Mono,Consolas,Menlo,Monaco,Andale Mono" font-size="10.00">grounding/global_weight_table</text>
</g>
<!-- process/
grounding/factor/inf_istrue_review_sentiment/materialize&#45;&gt;process/
grounding/global_weight_table -->
<g id="edge14" class="edge"><title>process/
grounding/factor/inf_istrue_review_sentiment/materialize&#45;&gt;process/
grounding/global_weight_table</title>
<path fill="none" stroke="#999999" d="M339.534,-593.29C289.357,-605.835 224.384,-622.079 174.78,-634.48"/>
<polygon fill="#999999" stroke="#999999" points="173.926,-631.086 165.074,-636.907 175.624,-637.877 173.926,-631.086"/>
</g>
<!-- data/
review_feature&#45;&gt;process/
grounding/factor/inf_istrue_review_sentiment/materialize -->
<g id="edge10" class="edge"><title>data/
review_feature&#45;&gt;process/
grounding/factor/inf_istrue_review_sentiment/materialize</title>
<path fill="none" stroke="#999999" d="M367.074,-428.569C376.382,-455.247 394.454,-507.047 406.133,-540.523"/>
<polygon fill="#999999" stroke="#999999" points="402.937,-541.987 409.536,-550.275 409.546,-539.681 402.937,-541.987"/>
</g>
<!-- process/
grounding/factor/inf_istrue_review_sentiment/assign_weight_id -->
<g id="node17" class="node"><title>process/
grounding/factor/inf_istrue_review_sentiment/assign_weight_id</title>
<ellipse fill="none" stroke="#cc2222" cx="417.081" cy="-735.411" rx="193.31" ry="22.7556"/>
<text text-anchor="middle" x="417.081" y="-738.411" font-family="Ubuntu Mono,Envy Code R,Oxygen Mono,Consolas,Menlo,Monaco,Andale Mono" font-size="10.00">process/</text>
<text text-anchor="middle" x="417.081" y="-726.411" font-family="Ubuntu Mono,Envy Code R,Oxygen Mono,Consolas,Menlo,Monaco,Andale Mono" font-size="10.00">grounding/factor/inf_istrue_review_sentiment/assign_weight_id</text>
</g>
<!-- process/
grounding/weight_id_partition&#45;&gt;process/
grounding/factor/inf_istrue_review_sentiment/assign_weight_id -->
<g id="edge15" class="edge"><title>process/
grounding/weight_id_partition&#45;&gt;process/
grounding/factor/inf_istrue_review_sentiment/assign_weight_id</title>
<path fill="none" stroke="#999999" d="M417.081,-676.813C417.081,-684.764 417.081,-693.938 417.081,-702.595"/>
<polygon fill="#999999" stroke="#999999" points="413.581,-702.781 417.081,-712.781 420.581,-702.781 413.581,-702.781"/>
</g>
<!-- process/
grounding/global_weight_table&#45;&gt;process/
grounding/combine_factorgraph -->
<g id="edge20" class="edge"><title>process/
grounding/global_weight_table&#45;&gt;process/
grounding/combine_factorgraph</title>
<path fill="none" stroke="#999999" d="M94.5332,-676.964C86.2252,-715.266 75.6192,-794.773 117.081,-839.294 148.887,-873.446 265.719,-887.358 355.747,-893.026"/>
<polygon fill="#999999" stroke="#999999" points="355.56,-896.521 365.752,-893.629 355.981,-889.533 355.56,-896.521"/>
</g>
<!-- process/
grounding/factor/inf_istrue_review_sentiment/dump -->
<g id="node18" class="node"><title>process/
grounding/factor/inf_istrue_review_sentiment/dump</title>
<ellipse fill="none" stroke="#cc2222" cx="286.081" cy="-816.666" rx="159.542" ry="22.7556"/>
<text text-anchor="middle" x="286.081" y="-819.666" font-family="Ubuntu Mono,Envy Code R,Oxygen Mono,Consolas,Menlo,Monaco,Andale Mono" font-size="10.00">process/</text>
<text text-anchor="middle" x="286.081" y="-807.666" font-family="Ubuntu Mono,Envy Code R,Oxygen Mono,Consolas,Menlo,Monaco,Andale Mono" font-size="10.00">grounding/factor/inf_istrue_review_sentiment/dump</text>
</g>
<!-- process/
grounding/factor/inf_istrue_review_sentiment/assign_weight_id&#45;&gt;process/
grounding/factor/inf_istrue_review_sentiment/dump -->
<g id="edge16" class="edge"><title>process/
grounding/factor/inf_istrue_review_sentiment/assign_weight_id&#45;&gt;process/
grounding/factor/inf_istrue_review_sentiment/dump</title>
<path fill="none" stroke="#999999" d="M381.631,-757.859C365.628,-767.54 346.57,-779.07 329.701,-789.276"/>
<polygon fill="#999999" stroke="#999999" points="327.85,-786.305 321.106,-794.476 331.474,-792.294 327.85,-786.305"/>
</g>
<!-- process/
grounding/factor/inf_istrue_review_sentiment/dump_weights -->
<g id="node19" class="node"><title>process/
grounding/factor/inf_istrue_review_sentiment/dump_weights</title>
<ellipse fill="none" stroke="#cc2222" cx="649.081" cy="-816.666" rx="185.102" ry="22.7556"/>
<text text-anchor="middle" x="649.081" y="-819.666" font-family="Ubuntu Mono,Envy Code R,Oxygen Mono,Consolas,Menlo,Monaco,Andale Mono" font-size="10.00">process/</text>
<text text-anchor="middle" x="649.081" y="-807.666" font-family="Ubuntu Mono,Envy Code R,Oxygen Mono,Consolas,Menlo,Monaco,Andale Mono" font-size="10.00">grounding/factor/inf_istrue_review_sentiment/dump_weights</text>
</g>
<!-- process/
grounding/factor/inf_istrue_review_sentiment/assign_weight_id&#45;&gt;process/
grounding/factor/inf_istrue_review_sentiment/dump_weights -->
<g id="edge17" class="edge"><title>process/
grounding/factor/inf_istrue_review_sentiment/assign_weight_id&#45;&gt;process/
grounding/factor/inf_istrue_review_sentiment/dump_weights</title>
<path fill="none" stroke="#999999" d="M477.129,-756.924C508.533,-767.653 547.132,-780.839 579.798,-791.998"/>
<polygon fill="#999999" stroke="#999999" points="578.691,-795.318 589.285,-795.239 580.954,-788.694 578.691,-795.318"/>
</g>
<!-- process/
grounding/factor/inf_istrue_review_sentiment/dump&#45;&gt;process/
grounding/combine_factorgraph -->
<g id="edge18" class="edge"><title>process/
grounding/factor/inf_istrue_review_sentiment/dump&#45;&gt;process/
grounding/combine_factorgraph</title>
<path fill="none" stroke="#999999" d="M333.637,-838.489C358.063,-849.185 387.923,-862.26 413.199,-873.327"/>
<polygon fill="#999999" stroke="#999999" points="412.076,-876.657 422.641,-877.462 414.884,-870.244 412.076,-876.657"/>
</g>
<!-- process/
grounding/factor/inf_istrue_review_sentiment/dump_weights&#45;&gt;process/
grounding/combine_factorgraph -->
<g id="edge19" class="edge"><title>process/
grounding/factor/inf_istrue_review_sentiment/dump_weights&#45;&gt;process/
grounding/combine_factorgraph</title>
<path fill="none" stroke="#999999" d="M600.786,-838.697C576.321,-849.351 546.529,-862.324 521.282,-873.318"/>
<polygon fill="#999999" stroke="#999999" points="519.62,-870.224 511.849,-877.426 522.415,-876.642 519.62,-870.224"/>
</g>
<!-- model/
factorgraph -->
<g id="node22" class="node"><title>model/
factorgraph</title>
<polygon fill="#cc22cc" stroke="#ffffff" points="516.031,-976.049 506.336,-997.393 467.081,-1006.89 427.826,-997.393 418.131,-976.049 445.296,-958.932 488.866,-958.932 516.031,-976.049"/>
<text text-anchor="middle" x="467.081" y="-984.663" font-family="Ubuntu Mono,Envy Code R,Oxygen Mono,Consolas,Menlo,Monaco,Andale Mono" font-size="10.00">model/</text>
<text text-anchor="middle" x="467.081" y="-972.663" font-family="Ubuntu Mono,Envy Code R,Oxygen Mono,Consolas,Menlo,Monaco,Andale Mono" font-size="10.00">factorgraph</text>
</g>
<!-- process/
grounding/combine_factorgraph&#45;&gt;model/
factorgraph -->
<g id="edge35" class="edge"><title>process/
grounding/combine_factorgraph&#45;&gt;model/
factorgraph</title>
<path fill="none" stroke="#999999" d="M467.081,-920.826C467.081,-929.348 467.081,-939.282 467.081,-948.58"/>
<polygon fill="#999999" stroke="#999999" points="463.581,-948.697 467.081,-958.697 470.581,-948.697 463.581,-948.697"/>
</g>
<!-- process/
model/learning -->
<g id="node21" class="node"><title>process/
model/learning</title>
<ellipse fill="none" stroke="#cc2222" cx="426.081" cy="-1065.4" rx="54.2456" ry="22.7556"/>
<text text-anchor="middle" x="426.081" y="-1068.4" font-family="Ubuntu Mono,Envy Code R,Oxygen Mono,Consolas,Menlo,Monaco,Andale Mono" font-size="10.00">process/</text>
<text text-anchor="middle" x="426.081" y="-1056.4" font-family="Ubuntu Mono,Envy Code R,Oxygen Mono,Consolas,Menlo,Monaco,Andale Mono" font-size="10.00">model/learning</text>
</g>
<!-- model/
weights -->
<g id="node24" class="node"><title>model/
weights</title>
<polygon fill="#cc22cc" stroke="#ffffff" points="463.02,-1143.53 455.704,-1164.88 426.081,-1174.38 396.458,-1164.88 389.142,-1143.53 409.642,-1126.42 442.52,-1126.42 463.02,-1143.53"/>
<text text-anchor="middle" x="426.081" y="-1152.15" font-family="Ubuntu Mono,Envy Code R,Oxygen Mono,Consolas,Menlo,Monaco,Andale Mono" font-size="10.00">model/</text>
<text text-anchor="middle" x="426.081" y="-1140.15" font-family="Ubuntu Mono,Envy Code R,Oxygen Mono,Consolas,Menlo,Monaco,Andale Mono" font-size="10.00">weights</text>
</g>
<!-- process/
model/learning&#45;&gt;model/
weights -->
<g id="edge37" class="edge"><title>process/
model/learning&#45;&gt;model/
weights</title>
<path fill="none" stroke="#999999" d="M426.081,-1088.31C426.081,-1096.83 426.081,-1106.77 426.081,-1116.06"/>
<polygon fill="#999999" stroke="#999999" points="422.581,-1116.18 426.081,-1126.18 429.581,-1116.18 422.581,-1116.18"/>
</g>
<!-- model/
factorgraph&#45;&gt;process/
model/learning -->
<g id="edge22" class="edge"><title>model/
factorgraph&#45;&gt;process/
model/learning</title>
<path fill="none" stroke="#999999" d="M456.094,-1004.57C451.564,-1013.6 446.238,-1024.22 441.34,-1033.98"/>
<polygon fill="#999999" stroke="#999999" points="438.17,-1032.5 436.815,-1043 444.427,-1035.64 438.17,-1032.5"/>
</g>
<!-- process/
model/inference -->
<g id="node23" class="node"><title>process/
model/inference</title>
<ellipse fill="none" stroke="#cc2222" cx="508.081" cy="-1232.89" rx="57.0085" ry="22.7556"/>
<text text-anchor="middle" x="508.081" y="-1235.89" font-family="Ubuntu Mono,Envy Code R,Oxygen Mono,Consolas,Menlo,Monaco,Andale Mono" font-size="10.00">process/</text>
<text text-anchor="middle" x="508.081" y="-1223.89" font-family="Ubuntu Mono,Envy Code R,Oxygen Mono,Consolas,Menlo,Monaco,Andale Mono" font-size="10.00">model/inference</text>
</g>
<!-- model/
factorgraph&#45;&gt;process/
model/inference -->
<g id="edge23" class="edge"><title>model/
factorgraph&#45;&gt;process/
model/inference</title>
<path fill="none" stroke="#999999" d="M476.699,-1004.81C481.163,-1015.99 486.124,-1029.89 489.081,-1042.78 501.503,-1096.93 505.804,-1161.66 507.293,-1199.62"/>
<polygon fill="#999999" stroke="#999999" points="503.81,-1200.18 507.657,-1210.05 510.806,-1199.93 503.81,-1200.18"/>
</g>
<!-- model/
probabilities -->
<g id="node27" class="node"><title>model/
probabilities</title>
<polygon fill="#cc22cc" stroke="#ffffff" points="559.665,-1311.02 549.448,-1332.36 508.081,-1341.86 466.714,-1332.36 456.497,-1311.02 485.124,-1293.9 531.038,-1293.9 559.665,-1311.02"/>
<text text-anchor="middle" x="508.081" y="-1319.63" font-family="Ubuntu Mono,Envy Code R,Oxygen Mono,Consolas,Menlo,Monaco,Andale Mono" font-size="10.00">model/</text>
<text text-anchor="middle" x="508.081" y="-1307.63" font-family="Ubuntu Mono,Envy Code R,Oxygen Mono,Consolas,Menlo,Monaco,Andale Mono" font-size="10.00">probabilities</text>
</g>
<!-- process/
model/inference&#45;&gt;model/
probabilities -->
<g id="edge36" class="edge"><title>process/
model/inference&#45;&gt;model/
probabilities</title>
<path fill="none" stroke="#999999" d="M508.081,-1255.79C508.081,-1264.32 508.081,-1274.25 508.081,-1283.55"/>
<polygon fill="#999999" stroke="#999999" points="504.581,-1283.66 508.081,-1293.66 511.581,-1283.66 504.581,-1283.66"/>
</g>
<!-- model/
weights&#45;&gt;process/
model/inference -->
<g id="edge24" class="edge"><title>model/
weights&#45;&gt;process/
model/inference</title>
<path fill="none" stroke="#999999" d="M444.688,-1168.7C455.332,-1179.31 468.88,-1192.81 480.717,-1204.61"/>
<polygon fill="#999999" stroke="#999999" points="478.271,-1207.11 487.825,-1211.7 483.213,-1202.16 478.271,-1207.11"/>
</g>
<!-- process/
model/load_weights -->
<g id="node25" class="node"><title>process/
model/load_weights</title>
<ellipse fill="none" stroke="#cc2222" cx="364.081" cy="-1232.89" rx="68.8191" ry="22.7556"/>
<text text-anchor="middle" x="364.081" y="-1235.89" font-family="Ubuntu Mono,Envy Code R,Oxygen Mono,Consolas,Menlo,Monaco,Andale Mono" font-size="10.00">process/</text>
<text text-anchor="middle" x="364.081" y="-1223.89" font-family="Ubuntu Mono,Envy Code R,Oxygen Mono,Consolas,Menlo,Monaco,Andale Mono" font-size="10.00">model/load_weights</text>
</g>
<!-- model/
weights&#45;&gt;process/
model/load_weights -->
<g id="edge25" class="edge"><title>model/
weights&#45;&gt;process/
model/load_weights</title>
<path fill="none" stroke="#999999" d="M411.073,-1169.93C403.59,-1179.8 394.396,-1191.92 386.131,-1202.82"/>
<polygon fill="#999999" stroke="#999999" points="383.29,-1200.77 380.035,-1210.85 388.867,-1205 383.29,-1200.77"/>
</g>
<!-- data/
model/weights -->
<g id="node30" class="node"><title>data/
model/weights</title>
<polygon fill="none" stroke="#2222cc" points="401.462,-1334.63 330.7,-1334.63 326.7,-1330.63 326.7,-1298.63 397.462,-1298.63 401.462,-1302.63 401.462,-1334.63"/>
<polyline fill="none" stroke="#2222cc" points="397.462,-1330.63 326.7,-1330.63 "/>
<polyline fill="none" stroke="#2222cc" points="397.462,-1330.63 397.462,-1298.63 "/>
<polyline fill="none" stroke="#2222cc" points="397.462,-1330.63 401.462,-1334.63 "/>
<text text-anchor="middle" x="364.081" y="-1319.63" font-family="Ubuntu Mono,Envy Code R,Oxygen Mono,Consolas,Menlo,Monaco,Andale Mono" font-size="10.00">data/</text>
<text text-anchor="middle" x="364.081" y="-1307.63" font-family="Ubuntu Mono,Envy Code R,Oxygen Mono,Consolas,Menlo,Monaco,Andale Mono" font-size="10.00">model/weights</text>
</g>
<!-- process/
model/load_weights&#45;&gt;data/
model/weights -->
<g id="edge29" class="edge"><title>process/
model/load_weights&#45;&gt;data/
model/weights</title>
<path fill="none" stroke="#999999" d="M364.081,-1255.79C364.081,-1265.87 364.081,-1277.91 364.081,-1288.55"/>
<polygon fill="#999999" stroke="#999999" points="360.581,-1288.59 364.081,-1298.59 367.581,-1288.59 360.581,-1288.59"/>
</g>
<!-- process/
model/load_probabilities -->
<g id="node26" class="node"><title>process/
model/load_probabilities</title>
<ellipse fill="none" stroke="#cc2222" cx="508.081" cy="-1400.37" rx="82.0276" ry="22.7556"/>
<text text-anchor="middle" x="508.081" y="-1403.37" font-family="Ubuntu Mono,Envy Code R,Oxygen Mono,Consolas,Menlo,Monaco,Andale Mono" font-size="10.00">process/</text>
<text text-anchor="middle" x="508.081" y="-1391.37" font-family="Ubuntu Mono,Envy Code R,Oxygen Mono,Consolas,Menlo,Monaco,Andale Mono" font-size="10.00">model/load_probabilities</text>
</g>
<!-- data/
model/probabilities -->
<g id="node29" class="node"><title>data/
model/probabilities</title>
<polygon fill="none" stroke="#2222cc" points="554.848,-1495 465.314,-1495 461.314,-1491 461.314,-1459 550.848,-1459 554.848,-1463 554.848,-1495"/>
<polyline fill="none" stroke="#2222cc" points="550.848,-1491 461.314,-1491 "/>
<polyline fill="none" stroke="#2222cc" points="550.848,-1491 550.848,-1459 "/>
<polyline fill="none" stroke="#2222cc" points="550.848,-1491 554.848,-1495 "/>
<text text-anchor="middle" x="508.081" y="-1480" font-family="Ubuntu Mono,Envy Code R,Oxygen Mono,Consolas,Menlo,Monaco,Andale Mono" font-size="10.00">data/</text>
<text text-anchor="middle" x="508.081" y="-1468" font-family="Ubuntu Mono,Envy Code R,Oxygen Mono,Consolas,Menlo,Monaco,Andale Mono" font-size="10.00">model/probabilities</text>
</g>
<!-- process/
model/load_probabilities&#45;&gt;data/
model/probabilities -->
<g id="edge28" class="edge"><title>process/
model/load_probabilities&#45;&gt;data/
model/probabilities</title>
<path fill="none" stroke="#999999" d="M508.081,-1423.36C508.081,-1431.34 508.081,-1440.45 508.081,-1448.83"/>
<polygon fill="#999999" stroke="#999999" points="504.581,-1448.9 508.081,-1458.9 511.581,-1448.9 504.581,-1448.9"/>
</g>
<!-- model/
probabilities&#45;&gt;process/
model/load_probabilities -->
<g id="edge26" class="edge"><title>model/
probabilities&#45;&gt;process/
model/load_probabilities</title>
<path fill="none" stroke="#999999" d="M508.081,-1342.16C508.081,-1350.09 508.081,-1359.01 508.081,-1367.41"/>
<polygon fill="#999999" stroke="#999999" points="504.581,-1367.64 508.081,-1377.64 511.581,-1367.64 504.581,-1367.64"/>
</g>
<!-- process/
model/calibration -->
<g id="node28" class="node"><title>process/
model/calibration</title>
<ellipse fill="none" stroke="#cc2222" cx="508.081" cy="-1553.63" rx="61.3838" ry="22.7556"/>
<text text-anchor="middle" x="508.081" y="-1556.63" font-family="Ubuntu Mono,Envy Code R,Oxygen Mono,Consolas,Menlo,Monaco,Andale Mono" font-size="10.00">process/</text>
<text text-anchor="middle" x="508.081" y="-1544.63" font-family="Ubuntu Mono,Envy Code R,Oxygen Mono,Consolas,Menlo,Monaco,Andale Mono" font-size="10.00">model/calibration</text>
</g>
<!-- model/
calibration&#45;plots -->
<g id="node31" class="node"><title>model/
calibration&#45;plots</title>
<polygon fill="#cc22cc" stroke="#ffffff" points="572.068,-1631.76 559.395,-1653.1 508.081,-1662.6 456.768,-1653.1 444.094,-1631.76 479.604,-1614.64 536.558,-1614.64 572.068,-1631.76"/>
<text text-anchor="middle" x="508.081" y="-1640.37" font-family="Ubuntu Mono,Envy Code R,Oxygen Mono,Consolas,Menlo,Monaco,Andale Mono" font-size="10.00">model/</text>
<text text-anchor="middle" x="508.081" y="-1628.37" font-family="Ubuntu Mono,Envy Code R,Oxygen Mono,Consolas,Menlo,Monaco,Andale Mono" font-size="10.00">calibration&#45;plots</text>
</g>
<!-- process/
model/calibration&#45;&gt;model/
calibration&#45;plots -->
<g id="edge34" class="edge"><title>process/
model/calibration&#45;&gt;model/
calibration&#45;plots</title>
<path fill="none" stroke="#999999" d="M508.081,-1576.53C508.081,-1585.05 508.081,-1594.99 508.081,-1604.29"/>
<polygon fill="#999999" stroke="#999999" points="504.581,-1604.4 508.081,-1614.4 511.581,-1604.4 504.581,-1604.4"/>
</g>
<!-- data/
model/probabilities&#45;&gt;process/
model/calibration -->
<g id="edge27" class="edge"><title>data/
model/probabilities&#45;&gt;process/
model/calibration</title>
<path fill="none" stroke="#999999" d="M508.081,-1495.31C508.081,-1502.84 508.081,-1511.91 508.081,-1520.6"/>
<polygon fill="#999999" stroke="#999999" points="504.581,-1520.87 508.081,-1530.87 511.581,-1520.87 504.581,-1520.87"/>
</g>
</g>
</svg>
