<?xml version="1.0" encoding="UTF-8" standalone="no"?>
<!DOCTYPE svg PUBLIC "-//W3C//DTD SVG 1.1//EN"
 "http://www.w3.org/Graphics/SVG/1.1/DTD/svg11.dtd">
<!-- Generated by graphviz version 2.38.0 (20140413.2041)
 -->
<!-- Title: movie&#45;review data flow Pages: 1 -->
<svg width="145pt" height="207pt"
 viewBox="0.00 0.00 144.52 206.51" xmlns="http://www.w3.org/2000/svg" xmlns:xlink="http://www.w3.org/1999/xlink">
<g id="graph0" class="graph" transform="scale(1 1) rotate(0) translate(4 202.51)">
<title>movie&#45;review data flow</title>
<polygon fill="white" stroke="none" points="-4,4 -4,-202.51 140.518,-202.51 140.518,4 -4,4"/>
<!-- process/
init/app -->
<g id="node1" class="node"><title>process/
init/app</title>
<ellipse fill="none" stroke="#cc2222" cx="68.2591" cy="-22.6274" rx="34.4627" ry="22.7556"/>
<text text-anchor="middle" x="68.2591" y="-25.6274" font-family="Ubuntu Mono,Envy Code R,Oxygen Mono,Consolas,Menlo,Monaco,Andale Mono" font-size="10.00">process/</text>
<text text-anchor="middle" x="68.2591" y="-13.6274" font-family="Ubuntu Mono,Envy Code R,Oxygen Mono,Consolas,Menlo,Monaco,Andale Mono" font-size="10.00">init/app</text>
</g>
<!-- process/
init/relation/reviews -->
<g id="node2" class="node"><title>process/
init/relation/reviews</title>
<ellipse fill="none" stroke="#cc2222" cx="68.2591" cy="-103.882" rx="68.0191" ry="22.7556"/>
<text text-anchor="middle" x="68.2591" y="-106.882" font-family="Ubuntu Mono,Envy Code R,Oxygen Mono,Consolas,Menlo,Monaco,Andale Mono" font-size="10.00">process/</text>
<text text-anchor="middle" x="68.2591" y="-94.8823" font-family="Ubuntu Mono,Envy Code R,Oxygen Mono,Consolas,Menlo,Monaco,Andale Mono" font-size="10.00">init/relation/reviews</text>
</g>
<!-- process/
init/app&#45;&gt;process/
init/relation/reviews -->
<g id="edge1" class="edge"><title>process/
init/app&#45;&gt;process/
init/relation/reviews</title>
<path fill="none" stroke="#999999" d="M68.2591,-45.2841C68.2591,-53.2345 68.2591,-62.4093 68.2591,-71.0662"/>
<polygon fill="#999999" stroke="#999999" points="64.7592,-71.2517 68.2591,-81.2517 71.7592,-71.2517 64.7592,-71.2517"/>
</g>
<!-- data/
reviews -->
<g id="node3" class="node"><title>data/
reviews</title>
<polygon fill="none" stroke="#2222cc" points="95.2591,-198.51 45.2591,-198.51 41.2591,-194.51 41.2591,-162.51 91.2591,-162.51 95.2591,-166.51 95.2591,-198.51"/>
<polyline fill="none" stroke="#2222cc" points="91.2591,-194.51 41.2591,-194.51 "/>
<polyline fill="none" stroke="#2222cc" points="91.2591,-194.51 91.2591,-162.51 "/>
<polyline fill="none" stroke="#2222cc" points="91.2591,-194.51 95.2591,-198.51 "/>
<text text-anchor="middle" x="68.2591" y="-183.51" font-family="Ubuntu Mono,Envy Code R,Oxygen Mono,Consolas,Menlo,Monaco,Andale Mono" font-size="10.00">data/</text>
<text text-anchor="middle" x="68.2591" y="-171.51" font-family="Ubuntu Mono,Envy Code R,Oxygen Mono,Consolas,Menlo,Monaco,Andale Mono" font-size="10.00">reviews</text>
</g>
<!-- process/
init/relation/reviews&#45;&gt;data/
reviews -->
<g id="edge2" class="edge"><title>process/
init/relation/reviews&#45;&gt;data/
reviews</title>
<path fill="none" stroke="#999999" d="M68.2591,-126.869C68.2591,-134.85 68.2591,-143.963 68.2591,-152.339"/>
<polygon fill="#999999" stroke="#999999" points="64.7592,-152.412 68.2591,-162.412 71.7592,-152.412 64.7592,-152.412"/>
</g>
</g>
</svg>
